<svg width="44" height="42" viewBox="0 0 44 42" fill="none" xmlns="http://www.w3.org/2000/svg">
<path d="M21.4943 34.143H3.71203C2.92858 34.143 2.29148 33.5204 2.29148 32.7549V18.1899H7.6888V19.2706C7.6888 20.6998 8.87844 21.8626 10.3411 21.8626C11.7751 21.8626 12.9416 20.7227 12.9416 19.3219V18.1898H25.4174V19.2705C25.4174 20.6997 26.6077 21.8625 28.0701 21.8625C29.504 21.8625 30.6706 20.7226 30.6706 19.3219V18.1897H36.0675V22.3008C36.0675 22.6495 36.3566 22.9319 36.7133 22.9319C37.0701 22.9319 37.3591 22.6495 37.3591 22.3008L37.3588 9.70826C37.3588 8.24689 36.1418 7.05812 34.6466 7.05812H25.9922C25.6654 3.66492 22.7359 1 19.1797 1C15.6232 1 12.6937 3.66492 12.3672 7.05812L3.71213 7.05777C2.21657 7.05777 1 8.24663 1 9.7079V32.7539C1 34.2153 2.21694 35.404 3.71213 35.404L21.4944 35.4044C21.8512 35.4044 22.1402 35.122 22.1402 34.7733C22.1402 34.4247 21.8512 34.1423 21.4944 34.1423L21.4943 34.143ZM11.6497 19.3219C11.6497 20.0269 11.0623 20.6006 10.3408 20.6006C9.59048 20.6006 8.98001 20.0041 8.98001 19.2706V15.9316H11.6493V19.3216L11.6497 19.3219ZM29.3785 19.3219C29.3785 20.0269 28.791 20.6006 28.0695 20.6006C27.3189 20.6006 26.7084 20.0041 26.7084 19.2706V15.9316H29.3784L29.3785 19.3219ZM19.1796 2.26169C22.0233 2.26169 24.3711 4.36184 24.6926 7.05776H13.6662C13.9877 4.3622 16.3355 2.26169 19.1792 2.26169H19.1796ZM3.71203 8.31982H34.6463C35.4297 8.31982 36.0668 8.94275 36.0668 9.70789V16.927H30.6699V15.3001C30.6699 14.9515 30.3808 14.6691 30.0241 14.6691H26.0625C25.7057 14.6691 25.4167 14.9515 25.4167 15.3001V16.927H12.941V15.3001C12.941 14.9515 12.652 14.6691 12.2952 14.6691H8.33431C7.97754 14.6691 7.68852 14.9515 7.68852 15.3001V16.927L2.29083 16.9274V9.70825C2.29083 8.94306 2.92797 8.32017 3.71138 8.32017L3.71203 8.31982ZM43 24.9221C43 24.2714 42.7405 23.6597 42.2699 23.1999C41.7992 22.74 41.1736 22.4864 40.5076 22.4864C39.8416 22.4864 39.2157 22.7396 38.7346 23.2097L34.8241 27.2033L26.4551 23.7035C26.2115 23.602 25.9308 23.6552 25.7441 23.8376L24.2429 25.3049C24.1081 25.4363 24.04 25.619 24.0562 25.8043C24.0717 25.9895 24.1708 26.1585 24.3261 26.2659L31.1292 30.9772L28.6499 33.5094L26.4119 33.4784C26.2476 33.4865 26.0692 33.5428 25.9463 33.6633L24.4266 35.1483C24.2723 35.299 24.206 35.5162 24.2514 35.7254C24.2969 35.9342 24.4471 36.1064 24.6511 36.1835L25.7751 36.6068C25.3045 37.4523 25.4079 38.322 26.1009 38.9996C26.7943 39.6774 27.6848 39.7778 28.55 39.3186L28.9836 40.4166C29.0618 40.6159 29.2383 40.7627 29.4524 40.8067C29.6665 40.8515 29.8885 40.7867 30.0427 40.6356L31.5624 39.1506C31.686 39.0302 31.7541 38.8661 31.7516 38.6957L31.7203 36.5089L34.311 34.0862L39.1332 40.7338C39.2431 40.8856 39.4157 40.982 39.6053 40.9979C39.6233 40.9993 39.6417 41 39.6597 41C39.8301 41 39.9948 40.9338 40.1163 40.8151L41.6176 39.3474C41.8042 39.165 41.8586 38.8904 41.7549 38.653L38.1731 30.475L42.2698 26.6442C42.7405 26.1839 42.9999 25.5722 42.9999 24.9215L43 24.9221ZM41.3668 25.7423L36.945 29.8766C36.7201 30.0869 36.6888 30.4151 36.8502 30.6633L40.3956 38.7571L39.7437 39.3941L34.9316 32.7599C34.8232 32.6099 34.6531 32.5141 34.4664 32.4965C34.4458 32.4944 34.4249 32.4937 34.4048 32.4937C34.2393 32.4937 34.079 32.5557 33.9583 32.6687L30.6234 35.7865C30.4937 35.9076 30.4216 36.076 30.4241 36.2513L30.4558 38.4462L29.8313 39.0565L29.45 38.0905C29.3722 37.893 29.1981 37.7468 28.987 37.7014C28.7747 37.6567 28.5541 37.7166 28.3988 37.8641C27.8485 38.3839 27.3825 38.4659 27.0143 38.1064C26.6463 37.7468 26.7303 37.2915 27.2625 36.7538C27.4135 36.6013 27.4755 36.3858 27.429 36.1791C27.3822 35.9724 27.2326 35.8023 27.0305 35.7259L26.042 35.3537L26.6665 34.7435L28.9127 34.7745C29.0943 34.7766 29.2644 34.7062 29.3884 34.5797L32.5795 31.3208C32.7093 31.188 32.7738 31.007 32.7558 30.8242C32.7381 30.6415 32.6397 30.4756 32.4862 30.3693L25.6967 25.6676L26.3486 25.0309L34.5947 28.4794C34.8524 28.6601 35.2128 28.6319 35.4373 28.4026L39.658 24.0918C40.112 23.6481 40.9027 23.6481 41.3568 24.0918C41.5838 24.3133 41.7085 24.6081 41.7085 24.9215C41.7085 25.2349 41.5838 25.5296 41.3669 25.7416L41.3668 25.7423Z" fill="#19AAEE" stroke="#19AAEE" stroke-width="1.3"/>
</svg>
