<svg width="36" height="36" viewBox="0 0 36 36" fill="none" xmlns="http://www.w3.org/2000/svg">
<path d="M15 18C13.35 18 11.9375 17.4125 10.7625 16.2375C9.58751 15.0625 9.00001 13.65 9.00001 12C9.00001 10.35 9.58751 8.9375 10.7625 7.7625C11.9375 6.5875 13.35 6 15 6C16.65 6 18.0625 6.5875 19.2375 7.7625C20.4125 8.9375 21 10.35 21 12C21 13.65 20.4125 15.0625 19.2375 16.2375C18.0625 17.4125 16.65 18 15 18ZM4.50001 30C4.07501 30 3.71851 29.856 3.43051 29.568C3.14251 29.28 2.99901 28.924 3.00001 28.5V25.8C3.00001 24.975 3.21251 24.2 3.63751 23.475C4.06251 22.75 4.65001 22.2 5.40001 21.825C6.67501 21.175 8.1125 20.625 9.7125 20.175C11.3125 19.725 13.075 19.5 15 19.5H15.525C15.675 19.5 15.825 19.525 15.975 19.575C15.775 20.025 15.606 20.494 15.468 20.982C15.33 21.47 15.224 21.976 15.15 22.5H15C13.225 22.5 11.6315 22.725 10.2195 23.175C8.80751 23.625 7.65101 24.075 6.75001 24.525C6.52501 24.65 6.34351 24.825 6.20551 25.05C6.06751 25.275 5.99901 25.525 6.00001 25.8V27H15.45C15.6 27.525 15.8 28.044 16.05 28.557C16.3 29.07 16.575 29.551 16.875 30H4.50001ZM15 15C15.825 15 16.5315 14.706 17.1195 14.118C17.7075 13.53 18.001 12.824 18 12C18 11.175 17.706 10.4685 17.118 9.8805C16.53 9.2925 15.824 8.999 15 9C14.175 9 13.4685 9.294 12.8805 9.882C12.2925 10.47 11.999 11.176 12 12C12 12.825 12.294 13.5315 12.882 14.1195C13.47 14.7075 14.176 15.001 15 15ZM25.5 27C26.325 27 27.0315 26.706 27.6195 26.118C28.2075 25.53 28.501 24.824 28.5 24C28.5 23.175 28.206 22.4685 27.618 21.8805C27.03 21.2925 26.324 20.999 25.5 21C24.675 21 23.9685 21.294 23.3805 21.882C22.7925 22.47 22.499 23.176 22.5 24C22.5 24.825 22.794 25.5315 23.382 26.1195C23.97 26.7075 24.676 27.001 25.5 27ZM23.55 29.25C23.25 29.125 22.9685 28.9935 22.7055 28.8555C22.4425 28.7175 22.174 28.549 21.9 28.35L20.2875 28.8375C20.1125 28.8875 19.95 28.881 19.8 28.818C19.65 28.755 19.525 28.649 19.425 28.5L18.525 27C18.425 26.85 18.394 26.6875 18.432 26.5125C18.47 26.3375 18.5635 26.1875 18.7125 26.0625L19.95 24.975C19.9 24.625 19.875 24.3 19.875 24C19.875 23.7 19.9 23.375 19.95 23.025L18.7125 21.9375C18.5625 21.8125 18.469 21.6625 18.432 21.4875C18.395 21.3125 18.426 21.15 18.525 21L19.425 19.5C19.525 19.35 19.65 19.244 19.8 19.182C19.95 19.12 20.1125 19.1135 20.2875 19.1625L21.9 19.65C22.175 19.45 22.444 19.2815 22.707 19.1445C22.97 19.0075 23.251 18.876 23.55 18.75L23.8875 17.1C23.9375 16.925 24.025 16.781 24.15 16.668C24.275 16.555 24.425 16.499 24.6 16.5H26.4C26.575 16.5 26.725 16.5565 26.85 16.6695C26.975 16.7825 27.0625 16.926 27.1125 17.1L27.45 18.75C27.75 18.875 28.0315 19.0125 28.2945 19.1625C28.5575 19.3125 28.826 19.5 29.1 19.725L30.675 19.1625C30.85 19.0875 31.019 19.0875 31.182 19.1625C31.345 19.2375 31.476 19.35 31.575 19.5L32.475 21.075C32.575 21.225 32.6125 21.3875 32.5875 21.5625C32.5625 21.7375 32.475 21.8875 32.325 22.0125L31.05 23.1C31.1 23.4 31.125 23.7125 31.125 24.0375C31.125 24.3625 31.1 24.675 31.05 24.975L32.2875 26.0625C32.4375 26.1875 32.5315 26.3375 32.5695 26.5125C32.6075 26.6875 32.576 26.85 32.475 27L31.575 28.5C31.475 28.65 31.35 28.7565 31.2 28.8195C31.05 28.8825 30.8875 28.8885 30.7125 28.8375L29.1 28.35C28.825 28.55 28.5565 28.719 28.2945 28.857C28.0325 28.995 27.751 29.126 27.45 29.25L27.1125 30.9C27.0625 31.075 26.975 31.219 26.85 31.332C26.725 31.445 26.575 31.501 26.4 31.5H24.6C24.425 31.5 24.275 31.444 24.15 31.332C24.025 31.22 23.9375 31.076 23.8875 30.9L23.55 29.25Z" fill="#19AAEE"/>
</svg>
