<svg width="43" height="43" viewBox="0 0 43 43" fill="none" xmlns="http://www.w3.org/2000/svg">
<path d="M35.133 7.26639C34.8762 7.27469 34.6339 7.38917 34.4643 7.58248C32.2277 10.1381 29.3273 12.0251 26.0844 13.0339C22.8415 14.0427 19.3828 14.1343 16.0909 13.2985C12.7995 12.4627 9.80332 10.7317 7.43474 8.29801C7.25431 8.11342 7.005 8.01262 6.74699 8.01926C6.49023 8.02714 6.24798 8.14162 6.07832 8.33493C2.86979 11.9604 1.06827 16.6165 1.0019 21.4569C0.935533 26.2976 2.60803 31.0015 5.71579 34.7136C5.88835 34.921 6.14262 35.043 6.41266 35.048C6.67648 35.0525 6.92993 34.9443 7.10954 34.751C8.82472 32.8868 10.9096 31.4006 13.2309 30.3863C15.5517 29.3721 18.0588 28.8524 20.5916 28.8598C23.289 28.8578 25.9537 29.448 28.3978 30.5896C30.8415 31.7315 33.0042 33.3962 34.7335 35.466C34.8982 35.6784 35.1525 35.802 35.4213 35.8008C35.6851 35.8049 35.9385 35.6971 36.1182 35.5034C39.678 31.6996 41.6313 26.668 41.5708 21.4587C41.5102 16.2491 39.4404 11.2644 35.793 7.54456C35.6192 7.36743 35.3815 7.26705 35.1331 7.26581L35.133 7.26639ZM20.5913 15.7218C23.3041 15.7197 25.9887 15.1734 28.4863 14.1152C30.9839 13.0571 33.2442 11.5086 35.1327 9.56148C37.8796 12.6746 39.4853 16.6297 39.6856 20.7762L3.44825 20.4419C3.2508 20.4361 3.0575 20.4983 2.90029 20.6182C3.12925 16.8659 4.501 13.2737 6.8306 10.3232C10.5668 13.803 15.4859 15.7326 20.5918 15.7214L20.5913 15.7218ZM6.50514 32.7165C4.21579 29.6407 2.93949 25.9294 2.85358 22.0964C3.01577 22.2221 3.21487 22.2909 3.4202 22.2913L39.6576 22.6257V22.6261C39.4606 26.6061 37.9694 30.4132 35.4113 33.4692C33.5164 31.418 31.2172 29.7812 28.6586 28.6619C26.1001 27.5424 23.3376 26.965 20.5446 26.965C15.2991 27.0028 10.2695 29.0631 6.50524 32.7167L6.50514 32.7165Z" fill="#19AAEE" stroke="#19AAEE"/>
<path d="M21.2794 1.4132C18.3949 1.41777 15.5443 2.0379 12.9182 3.23128C10.2921 4.42507 7.95053 6.16521 6.05025 8.33542C5.72007 8.69216 5.72007 9.24302 6.05025 9.5993C8.65818 12.2732 11.9542 14.1738 15.5742 15.0918C19.1947 16.0093 22.9984 15.9085 26.5649 14.7997C30.1314 13.691 33.3217 11.6178 35.7835 8.80956C36.1141 8.45324 36.1141 7.90238 35.7835 7.54568C33.9019 5.60145 31.6479 4.05638 29.1557 3.00276C26.664 1.94915 23.9852 1.40864 21.2794 1.4132ZM8.03856 8.91161C9.75502 7.13207 11.8116 5.71592 14.086 4.74694C16.3608 3.77795 18.8069 3.27641 21.2791 3.27142C25.9445 3.25732 30.4371 5.03354 33.8318 8.23337C30.4823 11.7094 25.9 13.7291 21.0741 13.856C16.2483 13.983 11.5664 12.2072 8.03824 8.91161H8.03856Z" fill="#19AAEE" stroke="#19AAEE"/>
<path d="M20.5913 27.0029C17.8001 27.0108 15.04 27.5923 12.4827 28.7111C9.92545 29.8302 7.62537 31.4625 5.72467 33.507C5.41689 33.858 5.41689 34.3827 5.72467 34.7336C7.62781 37.0093 10.0067 38.8394 12.6947 40.095C15.3822 41.3506 18.3128 42.0006 21.2791 41.9998C24.0736 42.0118 26.84 41.4394 29.4002 40.3195C31.9603 39.1995 34.258 37.5561 36.1457 35.4957C36.4539 35.1447 36.4539 34.6196 36.1457 34.2691C34.2439 31.9922 31.8646 30.1612 29.177 28.9056C26.4891 27.65 23.558 27.0005 20.5913 27.0029ZM7.6945 34.1575C11.1213 30.7524 15.7604 28.8471 20.5913 28.8612C23.1473 28.86 25.6752 29.3913 28.0142 30.4213C30.3533 31.4516 32.4518 32.9583 34.1757 34.8451C32.4791 36.5318 30.4673 37.8674 28.2543 38.7763C26.0413 39.6847 23.6711 40.1489 21.2789 40.1414C18.7233 40.1414 16.1954 39.6096 13.8567 38.5792C11.5181 37.5493 9.41913 36.0431 7.69439 34.1573L7.6945 34.1575Z" fill="#19AAEE" stroke="#19AAEE"/>
<path d="M20.9353 2.74164C20.4222 2.74164 20.0062 3.15727 20.0062 3.6708L20.35 41.0699C20.35 41.583 20.7661 41.9991 21.2792 41.9991C21.5256 41.9991 21.762 41.9012 21.9363 41.727C22.1105 41.5523 22.2084 41.3163 22.2084 41.0699L21.8645 3.6708C21.8645 3.42441 21.7666 3.18796 21.5924 3.01375C21.4182 2.83953 21.1817 2.74164 20.9353 2.74164Z" fill="#19AAEE" stroke="#19AAEE"/>
</svg>
