<svg width="36" height="36" viewBox="0 0 36 36" fill="none" xmlns="http://www.w3.org/2000/svg">
<g clip-path="url(#clip0_167_16174)">
<path d="M15.2578 25.6816C16.0195 26.0684 16.7051 26.543 17.3145 27.1055C17.9238 27.668 18.4512 28.3008 18.8965 29.0039C19.3418 29.707 19.6758 30.457 19.8984 31.2539C20.1211 32.0508 20.2383 32.8828 20.25 33.75H18C18 32.8242 17.8242 31.9512 17.4727 31.1309C17.1211 30.3105 16.6406 29.5957 16.0312 28.9863C15.4219 28.377 14.7012 27.8906 13.8691 27.5273C13.0371 27.1641 12.1641 26.9883 11.25 27C10.3125 27 9.43945 27.1758 8.63086 27.5273C7.82227 27.8789 7.10742 28.3594 6.48633 28.9688C5.86523 29.5781 5.37891 30.2988 5.02734 31.1309C4.67578 31.9629 4.5 32.8359 4.5 33.75H2.25C2.25 32.8945 2.36719 32.0684 2.60156 31.2715C2.83594 30.4746 3.16992 29.7246 3.60352 29.0215C4.03711 28.3184 4.55859 27.6855 5.16797 27.123C5.77734 26.5605 6.46875 26.0801 7.24219 25.6816C6.375 25.0371 5.70117 24.2402 5.2207 23.291C4.74023 22.3418 4.5 21.3281 4.5 20.25C4.5 19.3242 4.67578 18.4512 5.02734 17.6309C5.37891 16.8105 5.85938 16.0957 6.46875 15.4863C7.07812 14.877 7.79297 14.3906 8.61328 14.0273C9.43359 13.6641 10.3125 13.4883 11.25 13.5C12.3281 13.5 13.3418 13.7402 14.291 14.2207C15.2402 14.7012 16.0371 15.375 16.6816 16.2422C17.127 15.3633 17.6953 14.5781 18.3867 13.8867C19.0781 13.1953 19.8633 12.627 20.7422 12.1816C19.875 11.5371 19.2012 10.7402 18.7207 9.79102C18.2402 8.8418 18 7.82812 18 6.75C18 5.82422 18.1758 4.95117 18.5273 4.13086C18.8789 3.31055 19.3594 2.5957 19.9688 1.98633C20.5781 1.37695 21.293 0.890625 22.1133 0.527344C22.9336 0.164062 23.8125 -0.0117188 24.75 0C25.6758 0 26.5488 0.175781 27.3691 0.527344C28.1895 0.878906 28.9043 1.35938 29.5137 1.96875C30.123 2.57812 30.6094 3.29883 30.9727 4.13086C31.3359 4.96289 31.5117 5.83594 31.5 6.75C31.5 7.82812 31.2598 8.8418 30.7793 9.79102C30.2988 10.7402 29.625 11.5371 28.7578 12.1816C29.5195 12.5684 30.2051 13.043 30.8145 13.6055C31.4238 14.168 31.9512 14.8008 32.3965 15.5039C32.8418 16.207 33.1758 16.957 33.3984 17.7539C33.6211 18.5508 33.7383 19.3828 33.75 20.25H31.5C31.5 19.3242 31.3242 18.4512 30.9727 17.6309C30.6211 16.8105 30.1406 16.0957 29.5312 15.4863C28.9219 14.877 28.2012 14.3906 27.3691 14.0273C26.5371 13.6641 25.6641 13.4883 24.75 13.5C23.8125 13.5 22.9395 13.6758 22.1309 14.0273C21.3223 14.3789 20.6074 14.8594 19.9863 15.4688C19.3652 16.0781 18.8789 16.7988 18.5273 17.6309C18.1758 18.4629 18 19.3359 18 20.25C18 21.3281 17.7598 22.3418 17.2793 23.291C16.7988 24.2402 16.125 25.0371 15.2578 25.6816ZM20.25 6.75C20.25 7.37109 20.3672 7.95117 20.6016 8.49023C20.8359 9.0293 21.1582 9.50977 21.5684 9.93164C21.9785 10.3535 22.4531 10.6758 22.9922 10.8984C23.5312 11.1211 24.1172 11.2383 24.75 11.25C25.3711 11.25 25.9512 11.1328 26.4902 10.8984C27.0293 10.6641 27.5098 10.3418 27.9316 9.93164C28.3535 9.52148 28.6758 9.04688 28.8984 8.50781C29.1211 7.96875 29.2383 7.38281 29.25 6.75C29.25 6.12891 29.1328 5.54883 28.8984 5.00977C28.6641 4.4707 28.3418 3.99023 27.9316 3.56836C27.5215 3.14648 27.0469 2.82422 26.5078 2.60156C25.9688 2.37891 25.3828 2.26172 24.75 2.25C24.1289 2.25 23.5488 2.36719 23.0098 2.60156C22.4707 2.83594 21.9902 3.1582 21.5684 3.56836C21.1465 3.97852 20.8242 4.45312 20.6016 4.99219C20.3789 5.53125 20.2617 6.11719 20.25 6.75ZM6.75 20.25C6.75 20.8711 6.86719 21.4512 7.10156 21.9902C7.33594 22.5293 7.6582 23.0098 8.06836 23.4316C8.47852 23.8535 8.95312 24.1758 9.49219 24.3984C10.0312 24.6211 10.6172 24.7383 11.25 24.75C11.8711 24.75 12.4512 24.6328 12.9902 24.3984C13.5293 24.1641 14.0098 23.8418 14.4316 23.4316C14.8535 23.0215 15.1758 22.5469 15.3984 22.0078C15.6211 21.4688 15.7383 20.8828 15.75 20.25C15.75 19.6289 15.6328 19.0488 15.3984 18.5098C15.1641 17.9707 14.8418 17.4902 14.4316 17.0684C14.0215 16.6465 13.5469 16.3242 13.0078 16.1016C12.4688 15.8789 11.8828 15.7617 11.25 15.75C10.6289 15.75 10.0488 15.8672 9.50977 16.1016C8.9707 16.3359 8.49023 16.6582 8.06836 17.0684C7.64648 17.4785 7.32422 17.9531 7.10156 18.4922C6.87891 19.0312 6.76172 19.6172 6.75 20.25Z" fill="#19AAEE"/>
<g clip-path="url(#clip1_167_16174)">
<path d="M35.5038 27.8774L35.5037 27.8774L35.5227 27.8956L35.5262 27.8989L35.5261 27.8989C35.704 28.0772 35.8038 28.3187 35.8038 28.5705C35.8038 28.8223 35.704 29.0638 35.5261 29.242L35.526 29.2422L29.8692 34.8991C29.6185 35.1498 29.3209 35.3487 28.9933 35.4844C28.6657 35.62 28.3146 35.6899 27.96 35.6899C27.6055 35.6899 27.2544 35.62 26.9268 35.4844C26.5992 35.3487 26.3016 35.1498 26.0508 34.8991L20.5709 29.4191L20.5709 29.4191L20.7124 29.2777C20.6427 29.208 20.5875 29.1253 20.5498 29.0343C20.5121 28.9434 20.4927 28.8458 20.4927 28.7473C20.4927 28.6488 20.5121 28.5513 20.5498 28.4603C20.5875 28.3693 20.6427 28.2866 20.7124 28.217L35.5038 27.8774ZM35.5038 27.8774L35.4994 27.8734L33.9553 26.4837L34.2874 26.2123L34.2879 26.212C34.5356 26.0084 34.7453 25.7626 34.9073 25.4859L34.9079 25.4849C35.5212 24.4225 35.3411 23.1175 34.4654 22.2418C33.5898 21.3662 32.2847 21.1861 31.2224 21.7994L31.2213 21.8C30.9447 21.962 30.6989 22.1717 30.4954 22.4194L30.495 22.4198L30.2236 22.752L28.8339 21.2079L28.8339 21.2079L28.8304 21.2042L28.8123 21.1851L28.8124 21.185L28.8084 21.1811C28.6301 21.0032 28.3886 20.9033 28.1368 20.9033C27.885 20.9033 27.6435 21.0032 27.4652 21.1811L27.4651 21.1812L25.4151 23.2314L25.3523 23.2942L25.3567 23.3828L25.3939 24.1234L25.3984 24.2121L25.4671 24.2683L26.5017 25.1138L26.5018 25.1138C26.6215 25.2116 26.723 25.3297 26.8018 25.4626C27.0923 25.9667 27.0074 26.5888 26.5813 27.0148C26.1553 27.4409 25.5333 27.5257 25.0291 27.2354C24.896 27.1565 24.7778 27.0549 24.6799 26.9351L23.8347 25.9007L23.7786 25.832L23.6899 25.8275L22.9493 25.7904L22.8606 25.7859L22.7978 25.8487L20.5709 28.0756L35.5038 27.8774ZM21.8789 28.7472L23.2405 27.3858L23.5978 27.8231L23.5977 27.8231L23.5995 27.8252L23.602 27.8281C23.8053 28.0755 24.0509 28.2849 24.3272 28.4467L24.3283 28.4473C25.3907 29.0606 26.6957 28.8804 27.5713 28.0048C28.447 27.1291 28.6271 25.8242 28.0139 24.7618L28.0139 24.7618L28.0132 24.7607C27.8512 24.4841 27.6415 24.2383 27.3938 24.0347L27.3934 24.0344L26.9524 23.674L28.1196 22.5068L29.7291 24.2952L29.7906 24.3635L29.8825 24.3613L30.6413 24.3432L30.7333 24.341L30.7914 24.2698L31.5746 23.3114L31.5746 23.3114C31.6724 23.1917 31.7905 23.0901 31.9234 23.0113C32.4275 22.7209 33.0496 22.8058 33.4757 23.2318C33.9017 23.6578 33.9866 24.2798 33.6962 24.784C33.6174 24.917 33.5158 25.0351 33.3961 25.1328L33.3961 25.1329L32.4377 25.916L32.3665 25.9742L32.3643 26.0661L32.3461 26.8249L32.3439 26.9168L32.4123 26.9784L34.2007 28.5879L28.8793 33.9091L29.0207 34.0505L28.8793 33.9091C28.7586 34.0298 28.6153 34.1256 28.4575 34.1909C28.2998 34.2563 28.1308 34.2899 27.96 34.2899C27.7893 34.2899 27.6203 34.2563 27.4625 34.1909C27.3048 34.1256 27.1615 34.0298 27.0408 33.9091L26.8994 34.0505L27.0408 33.9091L21.8789 28.7472Z" fill="#19AAEE" stroke="#19AAEE" stroke-width="0.4"/>
</g>
</g>
<defs>
<clipPath id="clip0_167_16174">
<rect width="36" height="36" fill="white"/>
</clipPath>
<clipPath id="clip1_167_16174">
<rect width="16" height="16" fill="white" transform="translate(20 20)"/>
</clipPath>
</defs>
</svg>
