<svg width="37" height="36" viewBox="0 0 37 36" fill="none" xmlns="http://www.w3.org/2000/svg">
<g clip-path="url(#clip0_166_19918)">
<path d="M24.125 1.74623e-10C24.4297 1.74623e-10 24.6934 0.111328 24.916 0.333984L36.166 11.584C36.3887 11.8066 36.5 12.0703 36.5 12.375C36.5 12.6797 36.3887 12.9434 36.166 13.166L31.8945 17.4375C32.1875 17.7305 32.4746 18.0117 32.7559 18.2813C33.0371 18.5508 33.2832 18.8262 33.4941 19.1074C33.7051 19.3887 33.8809 19.7051 34.0215 20.0566C34.1621 20.4082 34.2324 20.8008 34.2324 21.2344C34.2324 21.7031 34.1445 22.1484 33.9688 22.5703C33.793 22.9922 33.5527 23.3613 33.248 23.6777C32.9434 23.9941 32.5859 24.2461 32.1758 24.4336C31.7656 24.6211 31.3262 24.7207 30.8574 24.7324C30.834 25.2129 30.7344 25.6523 30.5586 26.0508C30.3828 26.4492 30.1484 26.8008 29.8555 27.1055C29.5625 27.4102 29.2109 27.6504 28.8008 27.8262C28.3906 28.002 27.9512 28.0957 27.4824 28.1074C27.4707 28.5762 27.3711 29.0156 27.1836 29.4258C26.9961 29.8359 26.7441 30.1934 26.4277 30.498C26.1113 30.8027 25.7422 31.0488 25.3203 31.2363C24.8984 31.4238 24.4531 31.5117 23.9844 31.5C23.6094 31.5 23.2285 31.4355 22.8418 31.3066C22.7129 31.6699 22.543 31.998 22.332 32.291C22.1211 32.584 21.8633 32.8418 21.5586 33.0645C21.2539 33.2871 20.9316 33.457 20.5918 33.5742C20.252 33.6914 19.8828 33.75 19.4844 33.75C19.1797 33.75 18.9102 33.7266 18.6758 33.6797C18.4414 33.6328 18.2246 33.5508 18.0254 33.4336C17.8262 33.3164 17.627 33.1875 17.4277 33.0469C17.2285 32.9063 17.0234 32.7363 16.8125 32.5371C16.4023 32.9121 16.0039 33.2051 15.6172 33.416C15.2305 33.627 14.7383 33.7383 14.1406 33.75C13.6719 33.75 13.2266 33.6621 12.8047 33.4863C12.3828 33.3105 12.0137 33.0703 11.6973 32.7656C11.3809 32.4609 11.1289 32.1035 10.9414 31.6934C10.7539 31.2832 10.6543 30.8379 10.6426 30.3574C10.1855 30.3457 9.75195 30.252 9.3418 30.0762C8.93164 29.9004 8.57422 29.6602 8.26953 29.3555C7.96484 29.0508 7.72461 28.6934 7.54883 28.2832C7.37305 27.873 7.2793 27.4395 7.26758 26.9824C6.79883 26.9707 6.36523 26.877 5.9668 26.7012C5.56836 26.5254 5.2168 26.2852 4.91211 25.9805C4.60742 25.6758 4.36719 25.3184 4.19141 24.9082C4.01562 24.498 3.91602 24.0645 3.89258 23.6074C3.41211 23.5957 2.9668 23.4961 2.55664 23.3086C2.14648 23.1211 1.78906 22.8691 1.48438 22.5527C1.17969 22.2363 0.939453 21.873 0.763672 21.4629C0.587891 21.0527 0.5 20.6074 0.5 20.127C0.5 19.6465 0.587891 19.1953 0.763672 18.7734C0.939453 18.3516 1.19727 17.9707 1.53711 17.6309L3.40039 15.75L0.833984 13.166C0.611328 12.9434 0.5 12.6797 0.5 12.375C0.5 12.0703 0.611328 11.8066 0.833984 11.584L12.084 0.333984C12.3066 0.111328 12.5703 1.74623e-10 12.875 1.74623e-10C13.1797 1.74623e-10 13.4434 0.111328 13.666 0.333984L15.9863 2.6543C16.1387 2.60742 16.4316 2.50781 16.8652 2.35547C17.2988 2.20312 17.8086 2.0332 18.3945 1.8457C18.9805 1.6582 19.584 1.45313 20.2051 1.23047C20.8262 1.00781 21.4238 0.808594 21.998 0.632812C22.5723 0.457031 23.0469 0.304687 23.4219 0.175781C23.7969 0.046875 24.0312 -0.0117188 24.125 1.74623e-10ZM5.98438 16.875C5.64453 16.875 5.35156 16.998 5.10547 17.2441L3.11914 19.2129C2.87305 19.459 2.75 19.7578 2.75 20.1094C2.75 20.4609 2.86719 20.7539 3.10156 20.9883C3.33594 21.2227 3.63477 21.3457 3.99805 21.3574C4.36133 21.3574 4.66016 21.2402 4.89453 21.0059L6.88086 19.0371C7.12695 18.791 7.25 18.4922 7.25 18.1406C7.25 17.7891 7.12695 17.4902 6.88086 17.2441C6.63477 16.998 6.33594 16.875 5.98438 16.875ZM9.35938 20.25C9.19531 20.25 9.03711 20.2793 8.88477 20.3379C8.73242 20.3965 8.5918 20.4902 8.46289 20.6191L6.49414 22.6055C6.24805 22.8516 6.125 23.1504 6.125 23.502C6.125 23.8418 6.24805 24.1289 6.49414 24.3633C6.74023 24.5977 7.03906 24.7207 7.39062 24.7324C7.55469 24.7324 7.71289 24.7031 7.86523 24.6445C8.01758 24.5859 8.1582 24.498 8.28711 24.3809L10.2559 22.3945C10.502 22.1484 10.625 21.8555 10.625 21.5156C10.625 21.1641 10.502 20.8652 10.2559 20.6191C10.0098 20.373 9.71094 20.25 9.35938 20.25ZM12.7344 23.625C12.3945 23.625 12.1016 23.748 11.8555 23.9941L9.86914 25.9629C9.62305 26.209 9.5 26.5078 9.5 26.8594C9.5 27.2109 9.61719 27.5039 9.85156 27.7383C10.0859 27.9727 10.3848 28.0957 10.748 28.1074C11.1113 28.1074 11.4102 27.9902 11.6445 27.7559L13.6309 25.7871C13.877 25.541 14 25.2422 14 24.8906C14 24.5391 13.877 24.2402 13.6309 23.9941C13.3848 23.748 13.0859 23.625 12.7344 23.625ZM12.875 30.252C12.875 30.5918 12.998 30.8789 13.2441 31.1133C13.4902 31.3477 13.7891 31.4707 14.1406 31.4824C14.3047 31.4824 14.4629 31.4531 14.6152 31.3945C14.7676 31.3359 14.9082 31.248 15.0371 31.1309L17.0059 29.1445C17.252 28.8984 17.375 28.6055 17.375 28.2656C17.375 27.9141 17.252 27.6152 17.0059 27.3691C16.7598 27.123 16.4609 27 16.1094 27C15.9453 27 15.7871 27.0293 15.6348 27.0879C15.4824 27.1465 15.3418 27.2402 15.2129 27.3691L13.2441 29.3555C12.998 29.6016 12.875 29.9004 12.875 30.252ZM30.7344 22.5C31.0742 22.5 31.3672 22.377 31.6133 22.1309C31.8594 21.8848 31.9883 21.5918 32 21.252C32 20.9004 31.877 20.6016 31.6309 20.3555L20.5215 9.22852C20.4863 9.19336 20.4277 9.16406 20.3457 9.14062C20.2637 9.11719 20.1816 9.09375 20.0996 9.07031C20.0176 9.04687 19.9297 9.0293 19.8359 9.01758C19.7422 9.00586 19.6719 9 19.625 9C19.3203 9 19.0332 9.05859 18.7637 9.17578C18.4941 9.29297 18.2539 9.45117 18.043 9.65039C17.832 9.84961 17.668 10.0898 17.5508 10.3711C17.4336 10.6523 17.375 10.9453 17.375 11.25C17.375 11.8711 17.2578 12.4512 17.0234 12.9902C16.7891 13.5293 16.4668 14.0098 16.0566 14.4316C15.6465 14.8535 15.1719 15.1758 14.6328 15.3984C14.0938 15.6211 13.5078 15.7383 12.875 15.75C12.4063 15.75 11.9668 15.6621 11.5566 15.4863C11.1465 15.3105 10.7891 15.0703 10.4844 14.7656C10.1797 14.4609 9.93945 14.1035 9.76367 13.6934C9.58789 13.2832 9.5 12.8437 9.5 12.375C9.5 12.0937 9.5293 11.7832 9.58789 11.4434C9.64648 11.1035 9.74023 10.7988 9.86914 10.5293L13.1562 3.9375C13.2617 3.75 13.4199 3.59766 13.6309 3.48047L12.875 2.72461L3.20703 12.375L5.58008 14.7305C6.10742 14.6719 6.60547 14.707 7.07422 14.8359C7.54297 14.9648 7.95312 15.1816 8.30469 15.4863C8.65625 15.791 8.9375 16.1602 9.14844 16.5937C9.35938 17.0273 9.4707 17.5137 9.48242 18.0527C9.95117 18.0762 10.3906 18.1699 10.8008 18.334C11.2109 18.498 11.5625 18.7324 11.8555 19.0371C12.1484 19.3418 12.3887 19.6934 12.5762 20.0918C12.7637 20.4902 12.8574 20.9355 12.8574 21.4277C13.3262 21.4512 13.7656 21.5449 14.1758 21.709C14.5859 21.873 14.9375 22.1074 15.2305 22.4121C15.5234 22.7168 15.7637 23.0684 15.9512 23.4668C16.1387 23.8652 16.2324 24.3105 16.2324 24.8027C16.7129 24.8262 17.1582 24.9258 17.5684 25.1016C17.9785 25.2773 18.3359 25.5176 18.6406 25.8223C18.9453 26.127 19.1855 26.4902 19.3613 26.9121C19.5371 27.334 19.625 27.7852 19.625 28.2656C19.625 28.793 19.5195 29.2852 19.3086 29.7422C19.0977 30.1992 18.793 30.5977 18.3945 30.9375C18.5703 31.1016 18.7285 31.2363 18.8691 31.3418C19.0098 31.4473 19.2148 31.5 19.4844 31.5C19.8242 31.5 20.1172 31.377 20.3633 31.1309C20.6094 30.8848 20.7383 30.5918 20.75 30.252C20.75 29.9004 20.627 29.6016 20.3809 29.3555L21.9629 27.7559L23.1055 28.8809C23.375 29.127 23.668 29.25 23.9844 29.25C24.3242 29.25 24.6172 29.127 24.8633 28.8809C25.1094 28.6348 25.2383 28.3418 25.25 28.002C25.25 27.6504 25.127 27.3516 24.8809 27.1055L22.8945 25.1191L24.4941 23.5371L26.4629 25.5059C26.709 25.752 27.0078 25.875 27.3594 25.875C27.7109 25.875 28.0098 25.752 28.2559 25.5059C28.502 25.2598 28.625 24.9609 28.625 24.6094C28.625 24.2578 28.502 23.959 28.2559 23.7129L26.2695 21.7441L27.8691 20.1445L29.8555 22.1309C30.1016 22.377 30.3945 22.5 30.7344 22.5ZM33.7754 12.375L23.8262 2.4082L14.9668 5.36133L11.9082 11.4785C11.8496 11.584 11.8086 11.7305 11.7852 11.918C11.7617 12.1055 11.75 12.2578 11.75 12.375C11.75 12.6797 11.8613 12.9434 12.084 13.166C12.3066 13.3887 12.5703 13.5 12.875 13.5C13.1914 13.5 13.4844 13.4414 13.7539 13.3242C14.0234 13.207 14.2578 13.0488 14.457 12.8496C14.6562 12.6504 14.8203 12.4102 14.9492 12.1289C15.0781 11.8477 15.1367 11.5547 15.125 11.25C15.125 10.6289 15.2422 10.0488 15.4766 9.50977C15.7109 8.9707 16.0332 8.49023 16.4434 8.06836C16.8535 7.64648 17.3281 7.32422 17.8672 7.10156C18.4062 6.87891 18.9922 6.76172 19.625 6.75C19.8125 6.75 20.0117 6.76758 20.2227 6.80273C20.4336 6.83789 20.6563 6.88477 20.8906 6.94336C21.125 7.00195 21.3301 7.08398 21.5059 7.18945C21.6816 7.29492 21.8516 7.41797 22.0156 7.55859L30.3125 15.8555L33.7754 12.375Z" fill="#19AAEE"/>
</g>
<defs>
<clipPath id="clip0_166_19918">
<rect width="36" height="36" fill="white" transform="translate(0.5)"/>
</clipPath>
</defs>
</svg>
